<svg width="372" height="400" viewBox="0 0 372 400" fill="none" xmlns="http://www.w3.org/2000/svg">
<path fill-rule="evenodd" clip-rule="evenodd" d="M83.4462 199.996C83.3961 200.774 83.3483 201.55 83.3028 202.324C77.9331 300.267 110.953 381.123 146.576 381.123C182.2 381.123 215.482 300.164 209.85 202.289L209.867 202.255V202.221C209.821 201.483 209.773 200.741 209.722 199.995H290.23C287.885 165.207 280.572 121.396 270.058 84.6275C264.688 65.8316 258.418 49.2229 251.231 37.262C244.945 26.7705 237.824 19.8331 230.178 18.9446C229.082 18.8421 227.985 18.8421 226.872 18.9446C209.584 21.0292 195.128 49.5989 184.323 85.6869C173.743 121.026 166.318 163.247 163.954 199.996H83.4462ZM291.471 199.996H372.002C366.618 161.584 349.835 113.21 325.705 72.6115C313.381 51.8572 298.99 33.5181 282.495 20.3108C268.067 8.7262 251.723 1.06601 234.176 0.0849036C231.659 -0.0283012 229.141 -0.0283012 226.586 0.0849036C186.909 2.38673 153.732 33.9331 128.933 73.7812C104.65 112.801 87.6087 159.419 82.1834 199.995H1.65213C1.53697 200.856 1.42705 201.715 1.32241 202.571C-11.0017 310.719 64.7838 400 146.543 400C228.303 400 304.69 310.606 291.764 202.533L291.802 202.495V202.457C291.697 201.641 291.587 200.821 291.471 199.996Z" fill="white"/>
</svg>
